# xmcd
#
# Track frame offsets:
#	150
#	18586
#	38806
#	58794
#	80489
#	99879
#	117869
#	133904
#	153028
#	170521
#	187611
#	206793
#	224913
#	248259
#	268554
#	287908
#
# Disc length: 4052 seconds
#
# Revision: 1
# Processed by: cddbd v1.5.2PL0 Copyright (c) Steve Scherf et al.
# Submitted via: EasyCDDAExtractor 15.3.0.1
#
DISCID=de0fd210
DTITLE=Ricardo Montaner - Agradecido
DYEAR=2014
DGENRE=Latin
TTITLE0=Mi Buena Muchacha
TTITLE1=Llanto Agradecido
TTITLE2=No Te Vayas
TTITLE3=Mi Sagrada Soledad
TTITLE4=Mas Alla (Featuring Il Volo)
TTITLE5=Se Desesperaba (El Carrito Azul)
TTITLE6=Lo Mejor Esta Por Venir
TTITLE7=Vivamonos
TTITLE8=I Love You
TTITLE9=La Nieve
TTITLE10=Mar De Llanto
TTITLE11=Donde Estara
TTITLE12=Su Luz
TTITLE13=Lacrime Sincere (Llanto Agradecido) (Bonus Track)
TTITLE14=Al Di La (Mas Alla) (Featuring Il Volo) (Bonus Track)
TTITLE15=Lo Mejor Esta Por Venir (Remix) (Bonus Track)
EXTD=YEAR: 2014
EXTT0=
EXTT1=
EXTT2=
EXTT3=
EXTT4=
EXTT5=
EXTT6=
EXTT7=
EXTT8=
EXTT9=
EXTT10=
EXTT11=
EXTT12=
EXTT13=
EXTT14=
EXTT15=
PLAYORDER=
